<svg width="26" height="26" viewBox="0 0 26 26" fill="none" xmlns="http://www.w3.org/2000/svg">
<path d="M15.4913 21.0255C9.69609 21.0255 4.97852 16.3079 4.97852 10.5128C4.97852 4.71758 9.69609 0 15.4913 0C21.2864 0 26.004 4.71758 26.004 10.5128C26.004 16.3079 21.2864 21.0255 15.4913 21.0255ZM15.4913 2.46778C11.0575 2.46778 7.4463 6.07486 7.4463 10.5128C7.4463 14.9506 11.0534 18.5577 15.4913 18.5577C19.9292 18.5577 23.5362 14.9506 23.5362 10.5128C23.5362 6.07486 19.925 2.46778 15.4913 2.46778Z" fill="white"/>
<path d="M8.88421 18.8601C9.36608 18.3782 9.36608 17.597 8.88421 17.1151C8.40235 16.6333 7.62109 16.6333 7.13923 17.1151L0.87182 23.3825C0.389956 23.8644 0.389957 24.6456 0.871821 25.1275C1.35369 25.6094 2.13494 25.6094 2.61681 25.1275L8.88421 18.8601Z" fill="white"/>
</svg>
