<svg width="16" height="16" viewBox="0 0 16 16" fill="none" xmlns="http://www.w3.org/2000/svg">
<path d="M12.3193 0H15.9914V3.67209H12.3193V0Z" fill="white"/>
<path d="M6.16008 0H9.83217V3.67209H6.16008V0Z" fill="white"/>
<path d="M-7.22408e-05 0H3.67202V3.67209H-7.22408e-05V0Z" fill="white"/>
<path d="M12.3193 6.10396H15.9914V9.77605H12.3193V6.10396Z" fill="white"/>
<path d="M6.16008 6.10396H9.83217V9.77605H6.16008V6.10396Z" fill="white"/>
<path d="M-7.22408e-05 6.10396H3.67202V9.77605H-7.22408e-05V6.10396Z" fill="white"/>
<path d="M12.3193 12.2079H15.9914V15.88H12.3193V12.2079Z" fill="white"/>
<path d="M6.16008 12.2079H9.83217V15.88H6.16008V12.2079Z" fill="white"/>
<path d="M-7.22408e-05 12.2079H3.67202V15.88H-7.22408e-05V12.2079Z" fill="white"/>
</svg>
