<svg width="200" height="36" viewBox="0 0 200 36" fill="none" xmlns="http://www.w3.org/2000/svg">
<path d="M18.3594 17.8903L2.86849 8.94641L0 10.6126L18.3594 21.2125L36.6008 10.6126L33.7324 8.95666L18.3594 17.8903Z" fill="#287FE8"/>
<path d="M10.6663 16.7675L23.1965 9.48474L20.328 7.82875L7.79785 15.1115L10.6663 16.7675Z" fill="#287FE8"/>
<path d="M18.3594 3.32222L2.86849 12.2661L0 10.5998L18.3594 0L36.6008 10.5998L33.7324 12.2558L18.3594 3.32222Z" fill="#287FE8"/>
<path d="M18.3594 25.3448L0 15.0782V18.0671L18.3594 28.667L36.6008 18.0671V15.0782L18.3594 25.3448Z" fill="#185EB2"/>
<path d="M18.3594 32.1379L0 21.8739V24.8603L18.3594 35.4601L36.6008 24.8603V21.8739L18.3594 32.1379Z" fill="#10498D"/>
<path d="M58.9569 27.1879V10.8742H50.9128V27.1879H47.7393V8.00826H62.1868V27.1879H58.9569Z" fill="#1E2126"/>
<path d="M79.1804 20.9793C79.1804 21.9816 78.9958 22.8814 78.6241 23.6786C78.2524 24.4758 77.7397 25.15 77.0809 25.696C76.4221 26.2446 75.6556 26.6599 74.7738 26.9496C73.8945 27.2367 72.9538 27.3802 71.954 27.3802C70.9543 27.3802 69.9853 27.2367 69.106 26.9496C68.2268 26.6624 67.4654 26.2446 66.8271 25.696C66.1888 25.15 65.6838 24.4758 65.3121 23.6786C64.9404 22.8814 64.7559 21.9816 64.7559 20.9793V14.158C64.7559 13.1557 64.9456 12.2661 65.3249 11.4843C65.7043 10.705 66.2196 10.0411 66.8681 9.49507C67.5167 8.94905 68.2755 8.53121 69.147 8.24154C70.0186 7.95444 70.9543 7.81088 71.954 7.81088C72.9538 7.81088 73.8663 7.95956 74.7456 8.25692C75.6249 8.55428 76.3939 8.97725 77.0527 9.52326C77.7115 10.0718 78.2293 10.7383 78.6087 11.5279C78.9881 12.3174 79.1778 13.2121 79.1778 14.2144V20.9793H79.1804ZM76.0068 14.6886C76.0068 14.0016 75.894 13.4069 75.671 12.907C75.448 12.4071 75.1506 11.9944 74.7764 11.6689C74.4047 11.3433 73.9714 11.1075 73.4767 10.9588C72.982 10.8101 72.4744 10.7358 71.954 10.7358C71.4336 10.7358 70.9004 10.8101 70.4159 10.9588C69.9315 11.1075 69.5085 11.3433 69.1445 11.6689C68.7805 11.9944 68.4882 12.4071 68.2652 12.907C68.0422 13.4069 67.9294 14.0016 67.9294 14.6886V20.5076C67.9294 21.2126 68.0396 21.815 68.2652 22.3174C68.4908 22.8198 68.7856 23.2274 69.1599 23.5427C69.5316 23.858 69.9596 24.0913 70.4441 24.2374C70.9286 24.3861 71.4311 24.4604 71.954 24.4604C72.477 24.4604 72.982 24.3861 73.4767 24.2374C73.9689 24.0888 74.4021 23.858 74.7764 23.5427C75.1481 23.2274 75.4454 22.8198 75.671 22.3174C75.894 21.8175 76.0068 21.2126 76.0068 20.5076V14.6886Z" fill="#1E2126"/>
<path d="M104.584 10.8742V27.1879H101.41V10.8742H96.0938V8.00569H109.875V10.8742H104.586H104.584Z" fill="#1E2126"/>
<path d="M120.441 23.1941H113.287L111.923 27.3417H108.555L115.263 8.16205H118.493L125.202 27.3417H121.749L120.441 23.1941ZM114.205 20.4384H119.521L118.38 16.847L116.904 11.9765H116.794L115.373 16.6522L114.205 20.4384Z" fill="#1E2126"/>
<path d="M140.929 21.6919C140.929 22.4148 140.813 23.1172 140.58 23.7939C140.347 24.4707 140.001 25.0756 139.537 25.6037C139.073 26.1318 138.496 26.5548 137.812 26.8701C137.125 27.1854 136.335 27.3443 135.446 27.3443H126.814V8.16205H135.11C136.02 8.16205 136.822 8.30047 137.517 8.57989C138.212 8.85674 138.788 9.23357 139.242 9.7078C139.696 10.182 140.039 10.7229 140.273 11.3356C140.503 11.9483 140.621 12.5968 140.621 13.2838C140.621 14.0272 140.434 14.7629 140.065 15.4961C139.693 16.2292 139.091 16.8291 138.255 17.293C139.183 17.757 139.86 18.403 140.288 19.2284C140.713 20.0539 140.929 20.8767 140.929 21.6919ZM137.394 13.5068C137.394 12.6532 137.127 12.0277 136.597 11.6278C136.066 11.2279 135.325 11.0305 134.374 11.0305H129.988V15.9575H134.515C135.353 15.9575 136.043 15.7447 136.584 15.3166C137.125 14.8911 137.394 14.2861 137.394 13.5068ZM137.645 21.6227C137.645 20.7357 137.343 20.0334 136.74 19.5181C136.138 19.0003 135.417 18.7414 134.582 18.7414H129.988V24.4758H134.61C135.612 24.4758 136.368 24.222 136.879 23.7145C137.389 23.2069 137.645 22.5096 137.645 21.6227Z" fill="#1E2126"/>
<path d="M155.724 24.4758H161.792V8.16205H165.022V24.4758H166.608V30.1641H163.658V27.3417H143.307V8.16205H146.48V24.4758H152.55V8.16205H155.724V24.4758Z" fill="#1E2126"/>
<path d="M179.831 13.6453C179.459 14.2579 172.064 25.737 171.73 26.2548C171.397 26.7752 171.164 27.1367 171.036 27.3417H168.113V8.16205H171.287V21.8021H171.425L180.195 8.16205H183.174V27.3417H180V13.6453H179.833H179.831Z" fill="#1E2126"/>
<path d="M185.744 27.3417V8.16205H188.918V16.1523H191.394C191.727 16.1523 192.058 16.119 192.383 16.0549C192.709 15.9908 193.019 15.8652 193.317 15.6781C193.614 15.4935 193.888 15.2295 194.137 14.8834C194.388 14.5399 194.606 14.0887 194.791 13.5325L196.516 8.15948H199.661L197.936 13.7555C197.639 14.7014 197.259 15.4909 196.795 16.1215C196.331 16.7521 195.803 17.17 195.208 17.3751C196.006 17.634 196.629 18.0954 197.075 18.7542C197.521 19.413 197.882 20.2154 198.161 21.1613L199.999 27.3417H196.603L194.988 21.6893C194.821 21.1151 194.616 20.646 194.375 20.2846C194.134 19.9231 193.865 19.6411 193.568 19.4361C193.27 19.231 192.95 19.0977 192.606 19.0336C192.263 18.9695 191.907 18.9362 191.535 18.9362H188.918V27.3443H185.744V27.3417Z" fill="#1E2126"/>
<path d="M84.9968 12.8788C85.2275 12.3789 85.53 11.9688 85.9017 11.6535C86.2734 11.3382 86.6989 11.1177 87.168 10.9588C87.8473 10.7255 94.1688 10.8742 94.1688 10.8742V8.0057C94.1688 8.0057 89.2316 7.81088 88.5446 7.81088C87.9319 7.81088 87.3346 7.8801 86.7476 8.0057H86.7322C86.4528 8.06979 86.1734 8.139 85.9017 8.22872C85.0481 8.50814 84.2944 8.9106 83.6407 9.43867C82.987 9.96674 82.4641 10.6179 82.0668 11.3869C81.672 12.1559 81.4746 13.0429 81.4746 14.0452V21.1434C81.4746 22.1457 81.672 23.0377 82.0668 23.817C82.4615 24.5963 82.987 25.25 83.6407 25.7806C84.2944 26.3087 85.0481 26.7086 85.9017 26.9778C86.7553 27.2469 87.6448 27.3828 88.5754 27.3828C88.7625 27.3828 94.1713 27.3623 94.1713 27.3623V24.4604H88.5754C88.1114 24.4604 87.6474 24.3861 87.1834 24.2374C86.7194 24.0888 86.2965 23.858 85.9171 23.5427C85.5377 23.2274 85.2301 22.8198 84.9993 22.3174C84.7661 21.8175 84.6507 21.2126 84.6507 20.5076V14.6886C84.6507 13.9837 84.7661 13.3812 84.9993 12.8788H84.9968Z" fill="#1E2126"/>
</svg>
