<svg width="29" height="22" viewBox="0 0 29 22" fill="none" xmlns="http://www.w3.org/2000/svg">
<path d="M23.0529 17.1796C23.3774 17.1796 23.691 17.1219 23.9722 17.003C24.614 16.7253 25.043 16.2566 25.2413 15.6113C25.3531 15.2471 25.4541 14.883 25.555 14.5152C25.6055 14.3314 25.656 14.1475 25.71 13.9636L28.6088 3.76401H8.82246L9.35966 5.90921H25.8254L24.9493 9.13963H10.0591L10.6684 11.2848H24.3652L23.3485 15.0344H9.46422L9.42456 14.9082C9.41374 14.8758 9.40653 14.8578 9.40293 14.8397L6.26625 2.17404C6.19775 1.88201 6.12925 1.60439 5.99224 1.35202C5.62089 0.674205 5.09811 0.252376 4.39145 0.0721075C4.30132 0.0504753 4.21119 0.0360538 4.12105 0.0216323L3.98405 0H0.941109C0.915872 0.0108161 0.89424 0.0144215 0.876213 0.0180269C0.649074 0.0504753 0.4652 0.137004 0.310169 0.281219C-0.0575795 0.612914 -0.0756063 1.26909 0.137111 1.64766C0.32459 1.97935 0.620231 2.13799 1.04567 2.14159C1.67661 2.1452 2.30755 2.1452 2.93849 2.14159H3.95881L3.99847 2.26778C4.00928 2.30744 4.01649 2.32186 4.0201 2.33989L7.22167 15.276C7.27936 15.5211 7.33705 15.7519 7.44881 15.9574C7.88506 16.7542 8.54845 17.1508 9.47143 17.1724C9.75986 17.1796 10.0519 17.176 10.3439 17.1724H10.8487V17.1832H21.3331L23.0529 17.1724V17.1796Z" fill="white"/>
<path d="M10.539 17.7384C9.36363 17.7384 8.4082 18.6938 8.4082 19.8692C8.4082 21.0445 9.36363 22 10.539 22C11.7143 22 12.6698 21.0445 12.6698 19.8692C12.6698 18.6938 11.7143 17.7384 10.539 17.7384Z" fill="white"/>
<path d="M22.5995 17.7384C21.4242 17.7384 20.4688 18.6938 20.4688 19.8692C20.4688 21.0445 21.4242 22 22.5995 22C23.7749 22 24.7303 21.0445 24.7303 19.8692C24.7303 18.6938 23.7749 17.7384 22.5995 17.7384Z" fill="white"/>
</svg>
