<svg width="20" height="19" viewBox="0 0 20 19" fill="none" xmlns="http://www.w3.org/2000/svg">
<path d="M1.91264 9.86081C1.96065 9.92623 1.99266 9.97528 2.01667 10.0162C2.03268 10.0407 2.06469 10.0816 2.1047 10.147C4.44148 13.6874 7.37846 16.2957 10.3715 17.4895C13.2604 18.6342 14.4928 18.8958 15.1811 18.8958C15.4772 18.8958 15.6852 18.8467 15.8773 18.7977C16.0053 18.765 16.1254 18.7405 16.2774 18.7241C17.1417 18.6587 19.2144 17.563 19.6546 16.3039C20.0547 15.1428 20.0627 14.1208 19.9026 13.8591C19.7746 13.6792 19.4545 13.5239 18.9423 13.2868C18.7983 13.2213 18.5102 13.0742 18.1661 12.8943C17.2297 12.42 15.9493 11.7741 15.6132 11.6433L15.5492 11.6269C15.101 11.4961 14.7329 11.398 14.3808 11.954C14.0687 12.4609 13.1004 13.5729 12.8523 13.8509C12.6042 14.1616 12.3801 14.1943 11.94 13.9818C11.868 13.949 11.7719 13.9082 11.6679 13.8591C11.0037 13.5811 9.61921 12.9924 8.03468 11.5288C6.42614 10.0816 5.44181 8.35635 5.33778 8.17646C5.11371 7.71858 5.26576 7.54688 5.48983 7.26888L5.50584 7.24435C5.74592 7.04811 5.994 6.72923 6.25809 6.38582C6.32211 6.32041 6.40213 6.24682 6.44215 6.1487C6.54618 5.98517 6.6102 5.85435 6.69023 5.69899L6.75425 5.55999C6.97032 5.15117 6.85028 4.82411 6.71424 4.61153C6.6022 4.29264 5.63388 1.88876 5.22574 0.940293C4.86562 -0.00817646 4.44148 0.0245294 4.16939 0.0490588C4.13738 0.0490588 4.10537 0.0490588 4.07336 0.0490588C3.92131 0.0490588 3.77726 0.0408823 3.62521 0.0245294C3.46516 0.0163529 3.3051 0 3.12904 0C2.76092 0 2.22474 0.11447 1.76059 0.654117L1.70457 0.711352C1.1924 1.24282 0 2.45294 0 4.865C0 5.41282 0.104035 6.00152 0.288096 6.54935C0.696232 8.11105 1.57653 9.3784 1.91264 9.86081Z" fill="#0A61DE"/>
</svg>
