<svg width="20" height="27" viewBox="0 0 20 27" fill="none" xmlns="http://www.w3.org/2000/svg">
<path d="M10.0145 0.00164885C10.3036 0.0119542 10.5928 0.0181374 10.8815 0.0350381C11.0163 0.0428702 11.15 0.0737862 11.2844 0.0906869C11.3966 0.105114 11.5096 0.112534 11.6222 0.126962C11.6861 0.135206 11.7489 0.151282 11.8121 0.164885C11.8343 0.16942 11.8558 0.179313 11.8781 0.181374C12.0947 0.20116 12.3021 0.267939 12.5135 0.313694C12.7082 0.35574 12.8961 0.422106 13.0857 0.48229C13.2237 0.525984 13.363 0.567618 13.4991 0.61832C13.6287 0.666549 13.7546 0.724671 13.8822 0.778671C14.0008 0.828961 14.1199 0.878427 14.2377 0.929953C14.2932 0.954274 14.3487 0.980243 14.4017 1.00992C14.5058 1.06722 14.6083 1.12782 14.7115 1.18635C14.7674 1.21768 14.8253 1.2453 14.8804 1.27786C14.9995 1.34835 15.1173 1.42049 15.2347 1.49345C15.3145 1.54291 15.3939 1.5932 15.4712 1.64597C15.5615 1.70739 15.6502 1.77128 15.7377 1.83641C15.8264 1.90236 15.9159 1.96749 15.9993 2.03963C16.2277 2.23749 16.4577 2.43371 16.6784 2.64023C16.8298 2.78162 16.9679 2.93826 17.1093 3.09036C17.2089 3.19754 17.3065 3.30719 17.4008 3.41972C17.4826 3.517 17.5604 3.61758 17.6361 3.71981C17.7604 3.88717 17.8843 4.05535 18.0034 4.22684C18.0868 4.3472 18.1617 4.47375 18.2391 4.59824C18.282 4.6679 18.3201 4.74045 18.3634 4.8097C18.4254 4.90822 18.4804 5.00963 18.529 5.11598C18.5671 5.19883 18.6193 5.27509 18.6606 5.3563C18.7214 5.47543 18.7785 5.59662 18.836 5.71699C18.8862 5.8221 18.9368 5.9268 18.985 6.03315C19.0198 6.11024 19.0539 6.18773 19.0838 6.26688C19.1336 6.39837 19.1798 6.53152 19.2272 6.66384C19.2778 6.80523 19.3276 6.94662 19.3782 7.08759C19.3827 7.09996 19.3916 7.11068 19.3948 7.12304C19.4272 7.2397 19.458 7.35677 19.4908 7.47301C19.522 7.58308 19.5576 7.69231 19.588 7.80237C19.6009 7.84937 19.603 7.89883 19.6143 7.94624C19.6406 8.05794 19.6706 8.16883 19.6969 8.28013C19.7301 8.42069 19.7633 8.56126 19.7917 8.70265C19.8042 8.76613 19.8026 8.83249 19.8119 8.8968C19.8245 8.9846 19.8439 9.07158 19.8561 9.15938C19.8751 9.29541 19.8921 9.43185 19.9083 9.56829C19.9298 9.75132 19.9545 9.93393 19.9694 10.1174C19.9848 10.3049 19.9962 10.4933 19.9982 10.6817C20.0022 11.0246 19.9982 11.3676 19.9982 11.7106C19.9982 11.84 19.9828 11.9666 19.9593 12.0943C19.9261 12.2716 19.9099 12.4517 19.8844 12.6306C19.8779 12.676 19.8638 12.7197 19.8544 12.7646C19.8362 12.8549 19.82 12.9451 19.8018 13.0354C19.7909 13.0894 19.7779 13.143 19.7641 13.1962C19.7568 13.2246 19.7443 13.2522 19.737 13.2807C19.6908 13.4649 19.6471 13.65 19.5985 13.8339C19.5811 13.8998 19.5499 13.9625 19.5297 14.0276C19.4831 14.1777 19.4438 14.3302 19.3928 14.4786C19.3483 14.608 19.2916 14.7333 19.2401 14.8607C19.2304 14.885 19.2175 14.9093 19.2138 14.9349C19.2065 14.9873 19.1932 15.0359 19.1583 15.0767C19.1502 15.0862 19.1466 15.1002 19.1417 15.1122C19.0939 15.2371 19.049 15.3636 18.9976 15.4869C18.9563 15.5858 18.9064 15.6806 18.8623 15.7783C18.8141 15.8855 18.7692 15.9939 18.7214 16.1011C18.6853 16.1814 18.6481 16.261 18.6084 16.3397C18.5598 16.4358 18.5076 16.5302 18.4578 16.6254C18.4201 16.6979 18.3853 16.7721 18.3468 16.8439C18.2205 17.0784 18.0933 17.3125 17.9661 17.5467C17.8868 17.6926 17.8086 17.8394 17.7256 17.9832C17.6786 18.0644 17.6227 18.1403 17.5725 18.2198C17.5345 18.2804 17.5 18.3431 17.4636 18.4045C17.3842 18.5389 17.3061 18.6745 17.2239 18.8072C17.1846 18.8703 17.1356 18.9272 17.0939 18.989C17.0125 19.1102 16.9343 19.2339 16.8533 19.3555C16.8011 19.4342 16.7456 19.5109 16.6922 19.5888C16.6148 19.7017 16.5391 19.8155 16.4609 19.9276C16.3787 20.0451 16.2945 20.1605 16.2111 20.2772C16.1354 20.3831 16.06 20.4895 15.9831 20.5942C15.8904 20.7199 15.7964 20.8444 15.7025 20.9693C15.636 21.0579 15.5696 21.147 15.502 21.2343C15.4044 21.3605 15.3072 21.4866 15.2072 21.6107C15.0489 21.8073 14.8889 22.0027 14.7281 22.1973C14.5787 22.3782 14.4289 22.5588 14.2766 22.7373C14.173 22.8585 14.0644 22.9755 13.9583 23.0942C13.8381 23.2286 13.7194 23.3647 13.5971 23.4974C13.4829 23.6215 13.3647 23.7418 13.248 23.8634C13.1399 23.9756 13.0318 24.0877 12.9229 24.199C12.839 24.2847 12.7548 24.3705 12.669 24.4546C12.5159 24.6046 12.3636 24.7555 12.2069 24.9014C12.0672 25.0317 11.9222 25.1561 11.7781 25.2815C11.646 25.3965 11.5144 25.5127 11.3784 25.6224C11.2755 25.7052 11.1646 25.7782 11.0581 25.8565C10.9933 25.9039 10.9301 25.9542 10.8649 26.0008C10.8017 26.0461 10.7369 26.0886 10.6725 26.1323C10.5519 26.2147 10.4223 26.2819 10.2878 26.3359C10.1489 26.3915 10.0044 26.4229 9.8517 26.38C9.76099 26.3544 9.67838 26.3153 9.59253 26.2778C9.46132 26.2205 9.34105 26.1475 9.22402 26.0671C9.09929 25.9814 8.97578 25.8932 8.8543 25.8029C8.75549 25.7295 8.65911 25.6524 8.56354 25.5745C8.45016 25.4822 8.33758 25.389 8.22743 25.2926C8.06018 25.1467 7.89253 25.0011 7.73096 24.8486C7.5706 24.6978 7.41793 24.5386 7.26121 24.3837C7.18994 24.3132 7.11583 24.2451 7.04537 24.1734C6.92753 24.0535 6.8105 23.9319 6.69468 23.8099C6.58049 23.6899 6.46588 23.5699 6.35493 23.4471C6.21117 23.288 6.07106 23.1252 5.92932 22.9644C5.87182 22.8993 5.81189 22.8358 5.75479 22.7698C5.61062 22.6017 5.46727 22.4326 5.32392 22.2636C5.17206 22.0851 5.01858 21.9083 4.86956 21.7278C4.78735 21.6284 4.71406 21.5217 4.63509 21.4194C4.48 21.2183 4.32247 21.0192 4.1694 20.8168C4.07099 20.6869 3.97947 20.5513 3.88269 20.4202C3.78429 20.2871 3.67049 20.1634 3.58748 20.0212C3.5154 19.8975 3.42307 19.7904 3.35058 19.6675C3.27931 19.5476 3.19265 19.4367 3.1153 19.3204C3.0254 19.1848 2.93874 19.0476 2.85046 18.9111C2.81847 18.8616 2.78608 18.813 2.75409 18.7635C2.66743 18.6296 2.57834 18.4968 2.49492 18.3604C2.41352 18.2268 2.33941 18.0887 2.26045 17.9535C2.175 17.808 2.0851 17.6654 2.00249 17.5182C1.9215 17.374 1.84821 17.2247 1.77005 17.0788C1.72388 16.9927 1.67327 16.9086 1.62751 16.8224C1.5939 16.7589 1.56393 16.6938 1.53234 16.6291C1.47848 16.5178 1.42462 16.4061 1.37036 16.2952C1.32582 16.2045 1.27925 16.1147 1.23632 16.0236C1.18773 15.9201 1.14075 15.8158 1.09459 15.7107C1.03951 15.585 0.984441 15.4588 0.932607 15.3314C0.882393 15.2086 0.837443 15.0837 0.788444 14.9605C0.738229 14.8327 0.685585 14.7057 0.634966 14.5779C0.622818 14.5478 0.613909 14.5161 0.604595 14.4848C0.60176 14.4757 0.60581 14.4646 0.602975 14.4559C0.551546 14.3054 0.499307 14.155 0.448283 14.0045C0.43411 13.9621 0.421961 13.9188 0.410622 13.8755C0.398069 13.8277 0.387945 13.7795 0.375391 13.7321C0.34826 13.6307 0.320318 13.5301 0.293186 13.4287C0.285492 13.4002 0.283467 13.3689 0.270509 13.3429C0.222319 13.2436 0.215435 13.1348 0.195997 13.0288C0.183849 12.9645 0.161981 12.9023 0.147808 12.8384C0.134444 12.7782 0.123511 12.7168 0.113792 12.6558C0.0898996 12.5066 0.0643875 12.3573 0.0445448 12.2077C0.0307764 12.103 0.0198427 11.9975 0.017413 11.8919C0.00890897 11.5271 0 11.1623 0 10.7979C0 10.5502 0.00890897 10.3016 0.0263219 10.0543C0.0388755 9.87787 0.0737014 9.70309 0.094759 9.52748C0.107313 9.42319 0.110957 9.31808 0.122701 9.21379C0.128775 9.15855 0.144973 9.10497 0.153882 9.05014C0.175345 8.92071 0.195592 8.79127 0.216245 8.66225C0.222319 8.62391 0.227179 8.58517 0.235278 8.54724C0.264839 8.40585 0.294806 8.26488 0.326797 8.1239C0.336921 8.07938 0.362028 8.03775 0.368102 7.99282C0.394424 7.80361 0.455167 7.62347 0.509836 7.44292C0.55762 7.28463 0.585562 7.11892 0.658049 6.96764C0.690445 6.90045 0.706238 6.82584 0.73013 6.75453C0.753213 6.6861 0.775485 6.61767 0.800997 6.55007C0.831369 6.47092 0.864575 6.39343 0.896971 6.31511C0.964598 6.15228 1.02737 5.98781 1.10107 5.82787C1.18125 5.65309 1.27034 5.48202 1.35781 5.31054C1.43637 5.15638 1.51736 5.00344 1.59875 4.85093C1.63399 4.78538 1.67043 4.71984 1.71093 4.6576C1.82229 4.48694 1.94013 4.32 2.04866 4.14728C2.20699 3.89542 2.40137 3.672 2.57874 3.43497C2.65082 3.33852 2.73505 3.25154 2.81726 3.16332C2.99706 2.97041 3.17402 2.77461 3.36192 2.59035C3.50527 2.44937 3.66078 2.32117 3.81547 2.19297C4.00256 2.03839 4.19045 1.88464 4.38564 1.74078C4.54438 1.62412 4.71325 1.52107 4.87928 1.41513C4.98011 1.35082 5.08257 1.28858 5.18745 1.23087C5.34295 1.14554 5.49926 1.06227 5.65841 0.984365C5.80014 0.915114 5.94512 0.852457 6.09049 0.790625C6.28933 0.706121 6.48775 0.619969 6.68982 0.545358C6.84087 0.489709 6.99799 0.451374 7.15188 0.404381C7.20735 0.38748 7.26121 0.364809 7.3175 0.349969C7.39242 0.330183 7.46855 0.31658 7.54387 0.298855C7.6038 0.284839 7.66293 0.269175 7.72286 0.254748C7.78887 0.239084 7.85487 0.223832 7.92129 0.209817C8.02576 0.187969 8.13024 0.16571 8.23512 0.14716C8.31773 0.13232 8.40116 0.121603 8.48417 0.110061C8.67004 0.0849159 8.85551 0.0531755 9.0422 0.0379236C9.26492 0.0197862 9.48886 0.0152519 9.71199 0.00783205C9.81242 0.00453435 9.91325 0.00741984 10.0137 0.00741984C10.0137 0.00494656 10.0137 0.00247328 10.0137 0L10.0145 0.00164885ZM5.63006 10.368C5.66732 11.5618 6.16177 12.7061 7.18711 13.594C8.06261 14.352 9.08634 14.6979 10.2271 14.6385C11.3767 14.5787 12.36 14.1125 13.1573 13.2609C13.9599 12.4039 14.3625 11.3693 14.3608 10.1961C14.3592 8.93019 13.8956 7.83617 12.9889 6.96393C12.1583 6.16506 11.1524 5.75779 10.0084 5.75821C7.5787 5.75903 5.64707 7.73188 5.63006 10.368Z" fill="#0A61DE"/>
</svg>
